<?xml version="1.0" encoding="UTF-8" standalone="no"?>
<!-- Created with Inkscape (http://www.inkscape.org/) -->

<svg
   xmlns:dc="http://purl.org/dc/elements/1.1/"
   xmlns:cc="http://creativecommons.org/ns#"
   xmlns:rdf="http://www.w3.org/1999/02/22-rdf-syntax-ns#"
   xmlns:svg="http://www.w3.org/2000/svg"
   xmlns="http://www.w3.org/2000/svg"
   xmlns:xlink="http://www.w3.org/1999/xlink"
   xmlns:sodipodi="http://sodipodi.sourceforge.net/DTD/sodipodi-0.dtd"
   xmlns:inkscape="http://www.inkscape.org/namespaces/inkscape"
   width="210mm"
   height="297mm"
   viewBox="0 0 210 297"
   version="1.1"
   id="svg4974"
   inkscape:version="0.92.4 (5da689c313, 2019-01-14)"
   sodipodi:docname="logo.svg"
   inkscape:export-filename="C:\PC\THESE\Post_doc\Hugo\Blog\geodatascience\static\img\main\logo.png"
   inkscape:export-xdpi="300"
   inkscape:export-ydpi="300">
  <defs
     id="defs4968">
    <path
       style="fill:none;stroke:none;stroke-width:0.26458332px;stroke-linecap:butt;stroke-linejoin:miter;stroke-opacity:1"
       d="m 107.55312,222.2552 c 10.00325,-1.42037 19.49626,-5.73208 28.70729,-11.64166"
       id="path4808"
       inkscape:connector-curvature="0"
       sodipodi:nodetypes="cc" />
    <clipPath
       clipPathUnits="userSpaceOnUse"
       id="clipPath7635">
      <path
         inkscape:connector-curvature="0"
         id="path7637"
         d="m 682.82336,441.38686 c 21.01757,14.94065 43.84707,40.92324 45.97305,33.11276 2.12598,-7.81042 9.60942,-27.36926 9.60942,-27.36926 l 12.97837,6.56518 c 0,0 7.87562,-31.49936 4.50689,-27.47153 -17.48526,20.90635 -27.06185,0.85686 -27.06185,0.85686 l 2.5904,-6.77037 c -4.66598,-4.27033 -12.55376,7.26527 -17.21974,6.08658 -5.51574,-1.39335 -7.80968,-14.95219 -13.32542,-13.03039 z"
         style="display:inline;fill:#9696ff;fill-opacity:1;fill-rule:evenodd;stroke:#000000;stroke-width:0.26458332px;stroke-linecap:butt;stroke-linejoin:miter;stroke-opacity:1"
         sodipodi:nodetypes="csccsccscc" />
    </clipPath>
    <clipPath
       clipPathUnits="userSpaceOnUse"
       id="clipPath7631">
      <path
         inkscape:connector-curvature="0"
         id="path7633"
         d="m 947.09575,127.65332 c -22.21193,13.09932 -55.245,23.35097 -48.98009,28.4768 6.26486,5.12582 21.07282,19.93376 21.07282,19.93376 l -4.55631,18.79469 c 0,0 15.37748,10.82118 16.51654,5.69536 1.13908,-5.12583 10.25165,-25.05959 10.25165,-25.05959 l 5.12582,5.12583 18.79471,-25.05959 z"
         style="display:inline;fill:#9696ff;fill-opacity:1;fill-rule:evenodd;stroke:#000000;stroke-width:0.26458332px;stroke-linecap:butt;stroke-linejoin:miter;stroke-opacity:1" />
    </clipPath>
    <clipPath
       clipPathUnits="userSpaceOnUse"
       id="clipPath7612">
      <path
         inkscape:connector-curvature="0"
         id="path7614"
         d="m 555.60107,84.748774 c 25.62912,-10.82118 49.54963,-22.211903 62.64896,-16.51654 13.09934,5.69536 23.92051,22.78144 12.5298,33.033096 -11.39071,10.25164 -22.78145,2.84767 -10.8212,19.36422 11.96028,16.51654 15.37748,22.78144 -1.7086,27.90726 -17.08607,5.12583 -41.00658,14.2384 -44.99335,3.41722 -3.98674,-10.82118 -9.68211,-20.5033 -0.56954,-26.19866 9.1126,-5.69536 27.33773,-3.98675 9.1126,-16.51654 C 563.57457,96.709034 555.60107,84.748774 555.60107,84.748774 Z"
         style="display:inline;fill:#9696ff;fill-opacity:1;fill-rule:evenodd;stroke:#000000;stroke-width:0.26458332px;stroke-linecap:butt;stroke-linejoin:miter;stroke-opacity:1" />
    </clipPath>
    <radialGradient
       gradientTransform="matrix(0.07972654,0,0,0.07972654,2.7212867,2.8163992)"
       inkscape:collect="always"
       xlink:href="#linearGradient7422"
       id="radialGradient9431"
       gradientUnits="userSpaceOnUse"
       cx="406.36395"
       cy="108.19882"
       fx="406.36395"
       fy="108.19882"
       r="73.887207" />
    <linearGradient
       id="linearGradient7422"
       inkscape:collect="always">
      <stop
         style="stop-color:#9696ff;stop-opacity:1"
         offset="0"
         id="stop7418" />
      <stop
         style="stop-color:#3333ff;stop-opacity:1;"
         offset="1"
         id="stop7420" />
    </linearGradient>
  </defs>
  <sodipodi:namedview
     id="base"
     pagecolor="#ffffff"
     bordercolor="#666666"
     borderopacity="1.0"
     inkscape:pageopacity="0.0"
     inkscape:pageshadow="2"
     inkscape:zoom="11.2"
     inkscape:cx="32.735541"
     inkscape:cy="1065.6009"
     inkscape:document-units="mm"
     inkscape:current-layer="layer1"
     showgrid="false"
     inkscape:window-width="1920"
     inkscape:window-height="1003"
     inkscape:window-x="1911"
     inkscape:window-y="-9"
     inkscape:window-maximized="1" />
  <metadata
     id="metadata4971">
    <rdf:RDF>
      <cc:Work
         rdf:about="">
        <dc:format>image/svg+xml</dc:format>
        <dc:type
           rdf:resource="http://purl.org/dc/dcmitype/StillImage" />
        <dc:title />
      </cc:Work>
    </rdf:RDF>
  </metadata>
  <g
     inkscape:label="Calque 1"
     inkscape:groupmode="layer"
     id="layer1">
    <path
       style="display:inline;opacity:1;vector-effect:none;fill:url(#radialGradient9431);fill-opacity:1;fill-rule:evenodd;stroke:none;stroke-width:0.02109431px;stroke-linecap:butt;stroke-linejoin:miter;stroke-miterlimit:4;stroke-dasharray:none;stroke-dashoffset:0;stroke-opacity:1"
       id="path7328"
       r="5.8802242"
       cy="14.798283"
       cx="10.24305" />
    <circle
       style="display:inline;opacity:1;vector-effect:none;fill:#00aa3b;fill-opacity:1;fill-rule:evenodd;stroke:none;stroke-width:0.26458332px;stroke-linecap:butt;stroke-linejoin:miter;stroke-miterlimit:4;stroke-dasharray:none;stroke-dashoffset:0;stroke-opacity:1"
       id="path7328-8"
       cx="631.63409"
       cy="161.92093"
       r="73.754913"
       clip-path="url(#clipPath7612)"
       transform="matrix(0.07972654,0,0,0.07972654,-40.114952,1.8890639)" />
    <circle
       style="display:inline;opacity:1;vector-effect:none;fill:#00aa3b;fill-opacity:1;fill-rule:evenodd;stroke:none;stroke-width:0.26499999;stroke-linecap:butt;stroke-linejoin:miter;stroke-miterlimit:4;stroke-dasharray:none;stroke-dashoffset:0;stroke-opacity:1"
       id="path7328-8-8"
       cx="877.89709"
       cy="176.9182"
       r="73.754913"
       clip-path="url(#clipPath7631)"
       transform="matrix(0.07972654,0,0,0.07972654,-59.748647,0.69320514)" />
    <circle
       style="display:inline;opacity:1;vector-effect:none;fill:#00aa3b;fill-opacity:1;fill-rule:evenodd;stroke:none;stroke-width:0.26458332px;stroke-linecap:butt;stroke-linejoin:miter;stroke-miterlimit:4;stroke-dasharray:none;stroke-dashoffset:0;stroke-opacity:1"
       id="path7328-8-7"
       cx="746.60944"
       cy="387.94495"
       r="73.754913"
       clip-path="url(#clipPath7635)"
       transform="matrix(0.07972654,0,0,0.07972654,-49.276491,-16.12891)" />
    <path
       style="display:inline;opacity:0.50499998;fill:none;fill-rule:evenodd;stroke:#00d0ff;stroke-width:0.23917963;stroke-linecap:butt;stroke-linejoin:round;stroke-miterlimit:4;stroke-dasharray:none;stroke-opacity:1"
       d="m 6.1889184,10.549698 c 0.2639374,0.254942 0.7816769,0.409699 0.6830407,0.807763 -0.1981197,0.208921 -0.5680812,0.262256 -0.7402452,0.317572 -0.463502,0.148923 -0.7593114,0.299777 -0.8177312,0.419848 -0.079277,0.136533 -0.1478987,0.281057 -0.1846189,0.449508 0.1058778,0.722101 0.3956466,1.337713 0.5779389,1.669599 0.2434568,0.196593 0.5638382,0.236076 0.8669069,0.200674 1.1774726,-0.22028 2.2926108,-0.520631 3.3672942,-1.011393 C 10.138677,13.17212 10.131899,12.913012 10.041841,12.628671 9.7458534,12.081665 9.331269,11.598234 9.0293871,11.057617 8.9665329,10.945058 8.943345,10.817808 8.8897764,10.700547 l 0.091323,-0.107694 c 0.6415715,-0.260587 1.3230546,-0.484534 1.5182766,-1.1548839 0.06371,-0.1849406 0.06086,-0.3275284 0.05112,-0.4657353 -9.51e-4,-0.013349 -0.003,-0.030675 -0.0024,-0.044475"
       id="path7660"
       inkscape:connector-curvature="0"
       sodipodi:nodetypes="ccsccccccscccsc" />
    <path
       style="display:inline;opacity:0.52600002;fill:none;fill-opacity:1;fill-rule:evenodd;stroke:#2e97ff;stroke-width:0.23917963;stroke-linecap:butt;stroke-linejoin:round;stroke-miterlimit:4;stroke-dasharray:none;stroke-opacity:1"
       d="m 5.5533475,18.344294 0.08756,-0.06599 0.9608982,-1.450918 c 0.3330546,-0.170428 0.5819001,0.604153 0.8714127,0.922358 0.2131302,0.303051 0.6132373,-0.05685 1.0561284,-0.330905 0.1212782,-0.07505 0.2088378,-0.105416 0.306085,-0.123166 0.090975,0.0094 0.1640378,0.03319 0.2016344,0.08532 L 8.8305426,17.92077 c 0.422647,0.74185 0.9231071,0.783379 1.4522424,0.566841 0.289335,-0.218805 0.559329,-0.441126 0.732189,-0.681108 0.210731,0.06646 -0.257468,1.490775 -0.386203,2.236162 l -1.0347204,-0.523419 -0.3728601,1.041797 -0.0044,0.027"
       id="path8042"
       inkscape:connector-curvature="0"
       sodipodi:nodetypes="ccccsccccccccc" />
    <path
       style="display:inline;opacity:0.48500001;fill:none;fill-rule:evenodd;stroke:#2e97ff;stroke-width:0.23917963;stroke-linecap:butt;stroke-linejoin:round;stroke-miterlimit:4;stroke-dasharray:none;stroke-opacity:1"
       d="m 14.961413,11.290325 c -0.371671,0.206324 -0.85272,0.433809 -1.330936,0.648919 -0.886326,0.398688 -1.762863,0.769652 -1.857742,1.103065 l 1.762335,1.687861 -0.363259,1.498436 c 0.422929,0.28022 0.845856,0.573021 1.268786,0.562026 l 0.865348,-2.105869 0.408665,0.408665 c 0.191873,-0.231515 0.297256,-0.52521 0.402236,-0.53104"
       id="path8116"
       inkscape:connector-curvature="0"
       sodipodi:nodetypes="csccccccc" />
    <path
       style="display:inline;opacity:1;vector-effect:none;fill:#000000;fill-opacity:0.26132406;fill-rule:evenodd;stroke:none;stroke-width:0.02109431px;stroke-linecap:butt;stroke-linejoin:miter;stroke-miterlimit:4;stroke-dasharray:none;stroke-dashoffset:0;stroke-opacity:1"
       d="m 14.345362,10.579075 a 5.5752016,5.1899087 0 0 1 0.38872,1.901083 5.5752016,5.1899087 0 0 1 -5.5752017,5.189943 5.5752016,5.1899087 0 0 1 -4.7924043,-2.549775 5.8802241,5.8802241 0 0 0 5.868007,5.535773 5.8802241,5.8802241 0 0 0 5.880248,-5.880245 5.8802241,5.8802241 0 0 0 -1.769369,-4.196779 z"
       id="path7328-9"
       inkscape:connector-curvature="0" />
    <path
       style="display:inline;fill:#8a3100;fill-opacity:1;fill-rule:evenodd;stroke:none;stroke-width:0.02109431px;stroke-linecap:butt;stroke-linejoin:miter;stroke-opacity:1"
       d="m 7.9387871,12.432011 0.2408085,-0.75453 0.3531832,0.738477 z"
       id="path8179"
       inkscape:connector-curvature="0" />
    <path
       style="display:inline;fill:#fffffe;fill-opacity:1;fill-rule:evenodd;stroke:none;stroke-width:0.02109431px;stroke-linecap:butt;stroke-linejoin:miter;stroke-opacity:1"
       d="m 8.1332246,11.822773 0.046372,-0.145292 0.068009,0.142201 -0.029492,-0.01344 -0.012962,0.03019 -0.026852,-0.03069 -0.023046,0.03587 z"
       id="path8179-6"
       inkscape:connector-curvature="0"
       sodipodi:nodetypes="cccccccc" />
    <path
       style="display:inline;fill:#8a3100;fill-opacity:1;fill-rule:evenodd;stroke:none;stroke-width:0.02109431px;stroke-linecap:butt;stroke-linejoin:miter;stroke-opacity:1"
       d="m 8.2197305,12.423985 0.1985044,-0.441481 0.2911377,0.432087 z"
       id="path8179-8"
       inkscape:connector-curvature="0" />
    <path
       style="display:inline;fill:#fffffe;fill-opacity:1;fill-rule:evenodd;stroke:none;stroke-width:0.02109431px;stroke-linecap:butt;stroke-linejoin:miter;stroke-opacity:1"
       d="m 8.3800104,12.067516 0.038226,-0.08501 0.056064,0.0832 -0.024313,-0.0079 -0.010685,0.01767 -0.022131,-0.01796 -0.018997,0.02099 z"
       id="path8179-6-9"
       inkscape:connector-curvature="0"
       sodipodi:nodetypes="cccccccc" />
    <path
       style="display:inline;fill:#8a3100;fill-opacity:1;fill-rule:evenodd;stroke:none;stroke-width:0.02109431px;stroke-linecap:butt;stroke-linejoin:miter;stroke-opacity:1"
       d="m 7.7300885,12.433378 0.1985044,-0.441481 0.2911376,0.432088 z"
       id="path8179-8-0"
       inkscape:connector-curvature="0" />
    <path
       style="display:inline;fill:#fffffe;fill-opacity:1;fill-rule:evenodd;stroke:none;stroke-width:0.02109431px;stroke-linecap:butt;stroke-linejoin:miter;stroke-opacity:1"
       d="m 7.8903684,12.076909 0.038226,-0.08501 0.056064,0.0832 -0.024313,-0.0079 -0.010685,0.01766 -0.022131,-0.01796 -0.018997,0.02099 z"
       id="path8179-6-9-3"
       inkscape:connector-curvature="0"
       sodipodi:nodetypes="cccccccc" />
    <path
       style="display:inline;fill:#8a3100;fill-opacity:1;fill-rule:evenodd;stroke:none;stroke-width:0.02109431px;stroke-linecap:butt;stroke-linejoin:miter;stroke-opacity:1"
       d="m 6.8318884,13.82415 0.2408084,-0.75453 0.3531839,0.738476 z"
       id="path8179-5"
       inkscape:connector-curvature="0" />
    <path
       style="display:inline;fill:#fffffe;fill-opacity:1;fill-rule:evenodd;stroke:none;stroke-width:0.02109431px;stroke-linecap:butt;stroke-linejoin:miter;stroke-opacity:1"
       d="m 7.0263264,13.214912 0.046372,-0.145292 0.068009,0.1422 -0.029492,-0.01344 -0.012962,0.03019 -0.026846,-0.03069 -0.023046,0.03587 z"
       id="path8179-6-8"
       inkscape:connector-curvature="0"
       sodipodi:nodetypes="cccccccc" />
    <path
       style="display:inline;fill:#8a3100;fill-opacity:1;fill-rule:evenodd;stroke:none;stroke-width:0.02109431px;stroke-linecap:butt;stroke-linejoin:miter;stroke-opacity:1"
       d="m 7.1128317,13.816123 0.1985051,-0.44148 0.2911376,0.432086 z"
       id="path8179-8-7"
       inkscape:connector-curvature="0" />
    <path
       style="display:inline;fill:#fffffe;fill-opacity:1;fill-rule:evenodd;stroke:none;stroke-width:0.02109431px;stroke-linecap:butt;stroke-linejoin:miter;stroke-opacity:1"
       d="m 7.2731117,13.459654 0.038226,-0.08501 0.056058,0.0832 -0.024313,-0.0079 -0.010685,0.01767 -0.022131,-0.01796 -0.018997,0.02099 z"
       id="path8179-6-9-2"
       inkscape:connector-curvature="0"
       sodipodi:nodetypes="cccccccc" />
    <path
       style="display:inline;fill:#8a3100;fill-opacity:1;fill-rule:evenodd;stroke:none;stroke-width:0.02109431px;stroke-linecap:butt;stroke-linejoin:miter;stroke-opacity:1"
       d="m 6.6231897,13.825516 0.198505,-0.44148 0.291137,0.432087 z"
       id="path8179-8-0-0"
       inkscape:connector-curvature="0" />
    <path
       style="display:inline;fill:#fffffe;fill-opacity:1;fill-rule:evenodd;stroke:none;stroke-width:0.02109431px;stroke-linecap:butt;stroke-linejoin:miter;stroke-opacity:1"
       d="m 6.7834696,13.469048 0.038226,-0.08501 0.056058,0.0832 -0.024313,-0.0079 -0.010685,0.01767 -0.022131,-0.01796 -0.018997,0.02099 z"
       id="path8179-6-9-3-6"
       inkscape:connector-curvature="0"
       sodipodi:nodetypes="cccccccc" />
    <path
       style="display:inline;fill:#8a3100;fill-opacity:1;fill-rule:evenodd;stroke:none;stroke-width:0.02109431px;stroke-linecap:butt;stroke-linejoin:miter;stroke-opacity:1"
       d="m 7.7865087,19.313213 0.2408084,-0.75453 0.3531833,0.738476 z"
       id="path8179-9"
       inkscape:connector-curvature="0" />
    <path
       style="display:inline;fill:#fffffe;fill-opacity:1;fill-rule:evenodd;stroke:none;stroke-width:0.02109431px;stroke-linecap:butt;stroke-linejoin:miter;stroke-opacity:1"
       d="m 7.9809461,18.703975 0.046372,-0.145292 0.068009,0.1422 -0.029492,-0.01344 -0.012962,0.03019 -0.026852,-0.03069 -0.023046,0.03587 z"
       id="path8179-6-87"
       inkscape:connector-curvature="0"
       sodipodi:nodetypes="cccccccc" />
    <path
       style="display:inline;fill:#8a3100;fill-opacity:1;fill-rule:evenodd;stroke:none;stroke-width:0.02109431px;stroke-linecap:butt;stroke-linejoin:miter;stroke-opacity:1"
       d="m 8.067452,19.305186 0.1985044,-0.44148 0.2911377,0.432087 z"
       id="path8179-8-2"
       inkscape:connector-curvature="0" />
    <path
       style="display:inline;fill:#fffffe;fill-opacity:1;fill-rule:evenodd;stroke:none;stroke-width:0.02109431px;stroke-linecap:butt;stroke-linejoin:miter;stroke-opacity:1"
       d="m 8.2277319,18.948718 0.038226,-0.08501 0.056064,0.0832 -0.024313,-0.0079 -0.010685,0.01767 -0.022131,-0.01796 -0.018997,0.02099 z"
       id="path8179-6-9-7"
       inkscape:connector-curvature="0"
       sodipodi:nodetypes="cccccccc" />
    <path
       style="display:inline;fill:#8a3100;fill-opacity:1;fill-rule:evenodd;stroke:none;stroke-width:0.02109431px;stroke-linecap:butt;stroke-linejoin:miter;stroke-opacity:1"
       d="m 7.5778101,19.314579 0.1985043,-0.44148 0.2911376,0.432087 z"
       id="path8179-8-0-5"
       inkscape:connector-curvature="0" />
    <path
       style="display:inline;fill:#fffffe;fill-opacity:1;fill-rule:evenodd;stroke:none;stroke-width:0.02109431px;stroke-linecap:butt;stroke-linejoin:miter;stroke-opacity:1"
       d="m 7.7380899,18.958111 0.038226,-0.08501 0.056064,0.0832 -0.024313,-0.0079 -0.010685,0.01767 -0.022131,-0.01796 -0.018997,0.02099 z"
       id="path8179-6-9-3-1"
       inkscape:connector-curvature="0"
       sodipodi:nodetypes="cccccccc" />
    <path
       style="display:inline;fill:#8a3100;fill-opacity:1;fill-rule:evenodd;stroke:none;stroke-width:0.02109431px;stroke-linecap:butt;stroke-linejoin:miter;stroke-opacity:1"
       d="M 14.645312,14.107552 14.404504,13.353021 14.05132,14.091498 Z"
       id="path8179-0"
       inkscape:connector-curvature="0" />
    <path
       style="display:inline;fill:#fffffe;fill-opacity:1;fill-rule:evenodd;stroke:none;stroke-width:0.02109431px;stroke-linecap:butt;stroke-linejoin:miter;stroke-opacity:1"
       d="m 14.450874,13.498315 -0.04637,-0.145294 -0.06801,0.142202 0.02949,-0.01344 0.01296,0.03019 0.02685,-0.03069 0.02305,0.03587 z"
       id="path8179-6-0"
       inkscape:connector-curvature="0"
       sodipodi:nodetypes="cccccccc" />
    <path
       style="display:inline;fill:#8a3100;fill-opacity:1;fill-rule:evenodd;stroke:none;stroke-width:0.02109431px;stroke-linecap:butt;stroke-linejoin:miter;stroke-opacity:1"
       d="m 14.364368,14.099525 -0.198503,-0.44148 -0.291137,0.432087 z"
       id="path8179-8-22"
       inkscape:connector-curvature="0" />
    <path
       style="display:inline;fill:#fffffe;fill-opacity:1;fill-rule:evenodd;stroke:none;stroke-width:0.02109431px;stroke-linecap:butt;stroke-linejoin:miter;stroke-opacity:1"
       d="m 14.204089,13.743057 -0.03823,-0.08501 -0.05606,0.0832 0.02431,-0.0079 0.01068,0.01766 0.02213,-0.01796 0.019,0.02099 z"
       id="path8179-6-9-9"
       inkscape:connector-curvature="0"
       sodipodi:nodetypes="cccccccc" />
    <path
       style="display:inline;fill:#8a3100;fill-opacity:1;fill-rule:evenodd;stroke:none;stroke-width:0.02109431px;stroke-linecap:butt;stroke-linejoin:miter;stroke-opacity:1"
       d="m 14.854012,14.108919 -0.198506,-0.44148 -0.291138,0.432086 z"
       id="path8179-8-0-3"
       inkscape:connector-curvature="0" />
    <path
       style="display:inline;fill:#fffffe;fill-opacity:1;fill-rule:evenodd;stroke:none;stroke-width:0.02109431px;stroke-linecap:butt;stroke-linejoin:miter;stroke-opacity:1"
       d="m 14.693732,13.75245 -0.03823,-0.08501 -0.05606,0.0832 0.02431,-0.0079 0.01068,0.01767 0.02213,-0.01796 0.019,0.02099 z"
       id="path8179-6-9-3-69"
       inkscape:connector-curvature="0"
       sodipodi:nodetypes="cccccccc" />
    <path
       style="display:inline;fill:none;stroke:none;stroke-width:0.02109431px;stroke-linecap:butt;stroke-linejoin:miter;stroke-opacity:1"
       d="m 11.296124,20.536038 c 0.797525,-0.113242 1.554371,-0.456999 2.288734,-0.92815"
       id="path4962"
       inkscape:connector-curvature="0"
       sodipodi:nodetypes="cc" />
    <path
       style="fill:none;stroke:none;stroke-width:0.1;stroke-linecap:butt;stroke-linejoin:miter;stroke-miterlimit:4;stroke-dasharray:none;stroke-opacity:1"
       d="m 11.622048,20.463735 c 0.816015,-0.199029 1.58936,-0.563999 2.3052,-1.1526"
       id="path100"
       inkscape:connector-curvature="0"
       sodipodi:nodetypes="cc" />
    <text
       xml:space="preserve"
       style="font-style:normal;font-variant:normal;font-weight:normal;font-stretch:normal;font-size:0.33601081px;line-height:1.25;font-family:'AR DARLING';-inkscape-font-specification:'AR DARLING';letter-spacing:0px;word-spacing:0px;display:inline;fill:#fcfcfc;fill-opacity:1;stroke:none;stroke-width:0.00840027"
       id="text911"><textPath
         xlink:href="#path100"
         id="textPath913"><tspan
   style="stroke-width:0.00840027"
   id="tspan909"><tspan
     style="stroke-width:0.00840027"
     id="tspan907"
     y="19.364897"
     x="10.949682">GDS Crew, 2019</tspan></tspan></textPath></text>
    <flowRoot
       xml:space="preserve"
       id="flowRoot3929"
       style="font-style:normal;font-variant:normal;font-weight:normal;font-stretch:normal;font-size:40px;line-height:1.25;font-family:'AR DARLING';-inkscape-font-specification:'AR DARLING';letter-spacing:0px;word-spacing:0px;display:inline;fill:#ffffff;fill-opacity:1;stroke:none;"
       transform="matrix(0.05154784,-2.0429098e-4,2.0429098e-4,0.05154784,11.456955,-5.4467577)"><flowRegion
         id="flowRegion3931"
         style="font-style:normal;font-variant:normal;font-weight:normal;font-stretch:normal;font-family:'AR DARLING';-inkscape-font-specification:'AR DARLING';fill:#ffffff;fill-opacity:1;"><rect
           id="rect3933"
           width="423.55698"
           height="228.39549"
           x="-70.710678"
           y="377.22913"
           style="font-style:normal;font-variant:normal;font-weight:normal;font-stretch:normal;font-family:'AR DARLING';-inkscape-font-specification:'AR DARLING';fill:#ffffff;fill-opacity:1;" /></flowRegion><flowPara
         id="flowPara3935">GDS</flowPara></flowRoot>  </g>
</svg>
